/* XPM */
static char *_83aa4a5c3274e4ac5a743621b08f2eecifMTHj3DAxDmfWY[] = {
/* columns rows colors chars-per-pixel */
"36 36 187 2 ",
"   c #68843D",
".  c #69853D",
"X  c #6B873D",
"o  c #69853E",
"O  c #6A853E",
"+  c #69863E",
"@  c #6A863E",
"#  c #6B863E",
"$  c #6A873E",
"%  c #6B873E",
"&  c #6A863F",
"*  c #6B873F",
"=  c #6C883E",
"-  c #6C883F",
";  c #6D883F",
":  c #6C893F",
">  c #6D893F",
",  c #6D8A3F",
"<  c #6E8A3F",
"1  c #6C8840",
"2  c #6D8840",
"3  c #6D8940",
"4  c #6E8940",
"5  c #6D8A40",
"6  c #6E8A40",
"7  c #6E8B40",
"8  c #6F8B40",
"9  c #6E8A41",
"0  c #6F8A41",
"q  c #6F8B41",
"w  c #6F8C41",
"e  c #708B41",
"r  c #708C40",
"t  c #708C41",
"y  c #708D41",
"u  c #718D41",
"i  c #718E41",
"p  c #728F41",
"a  c #708C42",
"s  c #708D42",
"d  c #718D42",
"f  c #718D43",
"g  c #728D42",
"h  c #718E42",
"j  c #728E42",
"k  c #738E42",
"l  c #728F42",
"z  c #738F42",
"x  c #728E43",
"c  c #738E43",
"v  c #728F43",
"b  c #738F43",
"n  c #739042",
"m  c #739043",
"M  c #749042",
"N  c #749142",
"B  c #749043",
"V  c #759043",
"C  c #749143",
"Z  c #759143",
"A  c #749242",
"S  c #759243",
"D  c #759343",
"F  c #769343",
"G  c #739044",
"H  c #749044",
"J  c #749144",
"K  c #759144",
"L  c #749045",
"P  c #759145",
"I  c #769144",
"U  c #749244",
"Y  c #759244",
"T  c #759344",
"R  c #759245",
"E  c #769244",
"W  c #769344",
"Q  c #779344",
"!  c #769245",
"~  c #769345",
"^  c #779345",
"/  c #749146",
"(  c #759246",
")  c #759247",
"_  c #769246",
"`  c #769346",
"'  c #779346",
"]  c #779347",
"[  c #769444",
"{  c #779444",
"}  c #779544",
"|  c #769445",
" . c #779445",
".. c #779545",
"X. c #779645",
"o. c #779446",
"O. c #779546",
"+. c #779447",
"@. c #789444",
"#. c #789445",
"$. c #789545",
"%. c #789645",
"&. c #799645",
"*. c #789446",
"=. c #789546",
"-. c #789447",
";. c #789547",
":. c #789646",
">. c #799646",
",. c #799746",
"<. c #799647",
"1. c #799747",
"2. c #7A9747",
"3. c #779449",
"4. c #789448",
"5. c #789548",
"6. c #789648",
"7. c #799648",
"8. c #7A9748",
"9. c #7A9749",
"0. c #7B9749",
"q. c #7A974A",
"w. c #7A964B",
"e. c #7B9848",
"r. c #7A9849",
"t. c #7B9849",
"y. c #7B9949",
"u. c #7B984A",
"i. c #7B984B",
"p. c #7C9949",
"a. c #7D9A49",
"s. c #7C994A",
"d. c #7C994B",
"f. c #7D9A4A",
"g. c #7C9A4B",
"h. c #7D9A4B",
"j. c #7D9B4B",
"k. c #7E9B4B",
"l. c #7C994C",
"z. c #7D994C",
"x. c #7C994D",
"c. c #7C9A4C",
"v. c #7D9A4C",
"b. c #7D9A4D",
"n. c #7E9A4C",
"m. c #7E9B4C",
"M. c #7E9A4D",
"N. c #7E9B4D",
"B. c #7F9B4D",
"V. c #7D9A4E",
"C. c #7E9B4E",
"Z. c #7F9B4F",
"A. c #7E9C4C",
"S. c #7F9C4C",
"D. c #7F9C4D",
"F. c #7F9D4D",
"G. c #7F9C4E",
"H. c #7F9D4E",
"J. c #7F9C4F",
"K. c #7F9C50",
"L. c #809D4D",
"P. c #809D4E",
"I. c #809C4F",
"U. c #809D4F",
"Y. c #819E4E",
"T. c #819E4F",
"R. c #809D50",
"E. c #819E50",
"W. c #819E51",
"Q. c #829F50",
"!. c #829F51",
"~. c #829F52",
"^. c #83A050",
"/. c #83A051",
"(. c #83A052",
"). c #83A053",
"_. c #84A151",
"`. c #84A152",
"'. c #84A153",
"]. c #85A153",
"[. c #85A253",
"{. c #84A154",
"}. c #85A254",
"|. c #85A255",
" X c #86A354",
".X c #86A355",
"XX c #87A455",
/* pixels */
"W b W W b b W q.^.2.F +.W B +.B B F B < W b b W f :.Q a.b.:.:.a.W B W m ",
"W W q b W f W W +.Y.+./.e.W +.+.:.2.b :.W b W W X W :., b.b.0.~.B b b m ",
"b b q +.:.f f W m F F +.. b G w 2./.+.F b b :.B b W +.b B :.*.W b :.:.G ",
"f W W W.q.W b W m + +.m . G W b e.^.+.b H.e.b +.W e W +.:.B c W . B [.e.",
"q./.Y.2.W m B W B B +.b m F F B +.:.b B 2.+.e./.W.W e W b , b b B b Y./.",
"a.XXe.+.:.b b a./.Y.F B m k.Y.+.F +.F w B B B H.~.W H.q.. . c c q B 3./.",
"q.a.F B < b m +.^.[.k.:.a.Y.:.e B +.B . b B B :.a.b.a.W b B +.B , +.F +.",
"W w +.B . b m b B H.XX+./.H.X . W W B w < m +.:.:.b.b b b @.:.F b W B B ",
"f 1 W +., q B W e W b.w H.q., q B q :.F b b b B W W W W W W W :.e.f b B ",
"W W b W m +.:.W b e e f B :.B b e . @.b B :.b . f W b b R.b.B q.[.+.+.b ",
"m b W b b.XXb.W +.W b W +.F +.W b b +.+.:.B , , :.*.W W B Y.Y.e b W W W ",
"w . b B +.b..Xa.:.).W +.m B B b W W W /.a.B :.B b W b W *.*.:.W *.f f W ",
", . F F +.+.H..XY.q.:.b m B B B b W W q.W.b.B B W :.e W B W W q X e W W ",
"m q m +.B B +.e.k.B b m +.a.a.B W H.B B W.b.e.H.b b b W q , W b b B W :.",
"B b b F b F B , m +.m :.+.e.H.q.W .Xb W a.W q.a.f b b.W , q f :.:.a.:.B ",
"+.m e.+.< 2.2., . +.F F B B a.H.b H.f b B b b *.W :.b.b.a.*.b :.b.XX:.b ",
"B 2.[.q.F W.Y.b X b :.:.m B F F :.W W b B B B m w +.F a.XXY.+.e..XW.+.W ",
"B :.B [.:.H.H.B *.*.W.:.+.:.B B *.e e W +.F F < , F +.F e..XH.+.Y.W W b ",
"B B F b W :.:.W b W :.[.2.F +.B q b W :., b 2.B + +.b +.b q.H.W b *.. b ",
"B b +.B *.e , B :.W +.).:.Y.Y.F b 1 f W m F X.B b B B F W W q.W B b B *.",
"F b +.Y.e.G m B W W :.q.B :.a.B e . B +.L.a.B +.F B +.B W :.W c *.c :.e ",
":.Y.a.H.:.m +.m q W W B B m G +.f f B b W./.q.W +.Y.:.B f b q b :.b.:.b ",
"b..XH.W m b m b . *.q b :.B m @.:.B :.b +..Xb.W k.H.q.B f q . W :.b.a.q.",
"[.b.W W m m B b q W . b B F 2.2.W b W c b e.3.W Y.b W b W f e W W B .Xa.",
"a.W W W *.+.:.W c :.W +.b b H.W.:.:.:.:.W < B :.B +.b B m m +.b b W b.q.",
"W b W b W W Y.W.W W b W F B q..X~.B *.~.a.B :.B b +.2.+ , B +.b . W :.f ",
"b W W W B c b.b.:.[.+.b F :.+.a.Y.b [.W W b c :.m F :.F W +.F F B b F +.",
"b 1 :.q < B q.:.b :.F B < w B :.:.B q.*.:.W B a.^.F b m B a.Y.F F +.m B ",
"B b b   c +.B m W b b +.m B B B *.*.c , , B :.:.b.H.b.W a..XY.+.W b 1 b ",
"W b b b +.@.B B W b c k.:.:.B B B :.b , b :.:.c B b.XX:.H.W.W m W b b b ",
"B b a.:.+.e.2.:.e.b B [.H.:.F :.a.:.b B @.F b b , :.b.q.w.W q b *.W :.W ",
"+.e.H.+.B /.Y.a.W.B b b..Xa.+.b.Y.B @.e.:.b b B , *.W W b , b :.*.b W W ",
"a.W.b W B a..XH.B +.q W b.q.a.W., b B [.e.+.:.W :.*.:.b B b + :.:.[.0.b ",
".XK.+.W b B H.l., b b W :.b b +.B . +.F b..XY.B :..X:.B +.b X B W :.W.a.",
"Y.F b W W +.W b W B . W *.W W B b m b F +.H.b.q.[.2.:., q c W B f W W.a.",
"q.+.B b W W w b *.b W W Y.a.B b b +.b B m +.W W e.c c c W B B :.W f ) W "
};
