/* XPM */
static char *_b29a9ae8962415af8cab1ef9691ac70K2rvJhtYp6qUnxyk[] = {
/* columns rows colors chars-per-pixel */
"36 36 194 2 ",
"   c #7F421F",
".  c #7B4F2A",
"X  c #7F6C2B",
"o  c #7B7233",
"O  c #931716",
"+  c #A71C18",
"@  c #9A2E18",
"#  c #8B3F13",
"$  c #A42B13",
"%  c #A72619",
"&  c #B02716",
"*  c #AA3819",
"=  c #B93A16",
"-  c #B73018",
";  c #BE341C",
":  c #B43715",
">  c #B02820",
",  c #C21F1B",
"<  c #DD2D19",
"1  c #C73319",
"2  c #C43C17",
"3  c #C52C22",
"4  c #F32D25",
"5  c #FD3A26",
"6  c #FA3D28",
"7  c #8F491B",
"8  c #894619",
"9  c #924F1B",
"0  c #97521C",
"q  c #B35C07",
"w  c #AE4115",
"e  c #B54616",
"r  c #A7561D",
"t  c #BA571A",
"y  c #B9690A",
"u  c #BE7010",
"i  c #BF7E1F",
"p  c #864C23",
"a  c #944720",
"s  c #82542D",
"d  c #895A2E",
"f  c #935A24",
"g  c #9A5B24",
"h  c #8C5530",
"j  c #B04220",
"k  c #B44921",
"l  c #BD5623",
"z  c #B85624",
"x  c #A95B3B",
"c  c #826426",
"v  c #856629",
"b  c #87682A",
"n  c #9C612E",
"m  c #9C6637",
"M  c #887D39",
"N  c #9E7533",
"B  c #917B3C",
"V  c #947637",
"C  c #A36028",
"Z  c #A26C24",
"A  c #BC6420",
"S  c #AB7926",
"D  c #AA762B",
"F  c #A56233",
"G  c #AC6B36",
"H  c #A76738",
"J  c #B96336",
"K  c #A57B35",
"L  c #A37E3C",
"P  c #B17439",
"I  c #CF4018",
"U  c #C54A18",
"Y  c #DA4E16",
"T  c #CE5E13",
"R  c #C4531C",
"E  c #CF5118",
"W  c #C75514",
"Q  c #E84B1E",
"!  c #F7431A",
"~  c #EE5C16",
"^  c #F35718",
"/  c #C96A0C",
"(  c #C7780A",
")  c #C96315",
"_  c #D87213",
"`  c #CA7716",
"'  c #E86517",
"]  c #FD6217",
"[  c #F46718",
"{  c #EA7918",
"}  c #F47816",
"|  c #FA7514",
" . c #C35B27",
".. c #CD5C26",
"X. c #D05022",
"o. c #D7512E",
"O. c #D45B21",
"+. c #E64A2C",
"@. c #E7592A",
"#. c #FF5422",
"$. c #E05931",
"%. c #C76F21",
"&. c #C3652B",
"*. c #C86427",
"=. c #C87225",
"-. c #D37129",
";. c #C36332",
":. c #C26830",
">. c #DC6D38",
",. c #C7763F",
"<. c #C87E3C",
"1. c #D57439",
"2. c #D97737",
"3. c #FD632A",
"4. c #E8752D",
"5. c #E27A3B",
"6. c #FF7D39",
"7. c #E86B37",
"8. c #8C7E40",
"9. c #6A863E",
"0. c #6D893F",
"q. c #76843C",
"w. c #7D843D",
"e. c #7B8A3E",
"r. c #6E8A40",
"t. c #728E42",
"y. c #7C8F41",
"u. c #7D8240",
"i. c #769244",
"p. c #789546",
"a. c #7A9748",
"s. c #7D9A4C",
"d. c #7F9C50",
"f. c #83863F",
"g. c #8F8F3F",
"h. c #8C843B",
"j. c #9C893C",
"k. c #89903F",
"l. c #AC803E",
"z. c #AB9B3B",
"x. c #BC993B",
"c. c #B88C36",
"v. c #CB8605",
"b. c #DB8C08",
"n. c #DF8A11",
"m. c #DD931A",
"M. c #C7951B",
"N. c #E78C0E",
"B. c #E59D0D",
"V. c #E2900E",
"C. c #E58413",
"Z. c #FA8315",
"A. c #E59511",
"S. c #EE9B11",
"D. c #E49D10",
"F. c #F59A12",
"G. c #EDAC0D",
"H. c #EAA40C",
"J. c #F5A80E",
"K. c #EFB00E",
"L. c #FABC0E",
"P. c #EDA210",
"I. c #FAA210",
"U. c #F6AD10",
"Y. c #F2A611",
"T. c #DB873D",
"R. c #D89C3C",
"E. c #E89527",
"W. c #FF922E",
"Q. c #E39B33",
"!. c #EC9D33",
"~. c #F89937",
"^. c #E38529",
"/. c #F7A325",
"(. c #F8B026",
"). c #EBA534",
"_. c #E8BA3D",
"`. c #FFB23E",
"'. c #FCBB3A",
"]. c #F5B63E",
"[. c #F8AC39",
"{. c #FFC50D",
"}. c #FFC43C",
"|. c #8A8540",
" X c #848D42",
".X c #818742",
"XX c #968745",
"oX c #879141",
"OX c #809D4E",
"+X c #819E50",
"@X c #85A153",
"#X c #C2AE41",
"$X c #FFBC40",
"%X c #FFC742",
/* pixels */
"i.t.i.i.t.i.i.a.d.a.p.p.i.i.p.i.i.i.i.0.p.0.p.a.i.p.p.s.s.a.p.a.p.i.i.i.",
"p.i.r.t.i.t.i.i.p.d.p.d.a.i.i.p.i.a.0.p.a.0.p.0.0.i.a.0.s.s.s.d.t.t.t.t.",
"t.t.t.p.p.t.i.i.i.p.i.p.0.0.p.i.s.@Xa.p.0.p.p.p.0.a.a.0.i.p.p.p.t.p.p.t.",
"t.i.i.+Xa.p.t.t.0.0.p.i.0.0.p.0.s.d.a.0.d.s.0.p.p.0.i.i.p.p.0.p.9.p.@Xa.",
"a.@Xs.a.i.i.t.i.e.i.p.0.i.i.i.i.p.p.i.p.p.p.p.d.s.p.0.p.0.0.0.i.p.t.OX@X",
"s.@Xs.i.a.t.t.s.@Xs.i.i.0.s.OXp.a.0.p.0.0.i.p.d.@Xp.s.a.0.0.0.i.0.i.p.+X",
"p.s.i.i.r.i.i.p.@X@Xs.a.s.@Xp.0.p.p.i.0.0.i.0.p.s.s.s.p.0.0.p.p.9.p.i.p.",
"i.t.p.t.9.r.i.t.p.d.@Xe.@Xs.9.0.e.p.0.0.i.i.a.p.p.s.p.0.p.p.p.p.t.i.i.t.",
"t.0.i.p.r.r.i.i.r.i.d.r.s.o p 8 # p s s . d |.i.e.p.i.p.p.p.p.p.s.t.t.i.",
"i.i.t.i.i.p.p.i.r.t.t.t.i..Xn a . h F F F H l.B q.0.0.i.s.s.i.p.@Xp.i.t.",
"i.t.i.t.s.@Xs.i.i.i.t.i.p.p.s.m s H ,.1.2.2.5.:.9 X i.p.i.OXs.t.t.i.p.i.",
"r.9.t.i.p.d.@Xs.p.@Xi.p.t.h.J -.M.i A R t t l ;.&.g v e.i.p.p.i.i.t.t.i.",
"0.0.i.i.i.p.s.@X+Xa.p.r.i.V 4 [ S.b.( q q q q *.2.&.r j. Xi.i.t.9.t.i.i.",
"t.r.i.p.i.i.i.s.s.i.i.t.y.8.3 3 T V.G.B.H.B.( u u %.1.<.P 0.i.i.t.t.i.p.",
"i.r.t.i.0.i.t.0.t.p.r.p.i.8.> % e V.{.L.Y.C./ / v.` ;.1.>.G H p.p.OXp.t.",
"i.i.s.p.i.p.p.0.9.p.p.p.i.V ; : W B.L.J._ = - T S./ : *.7.6 5 p.OX@Xa.t.",
"i.p.@Xs.i.@Xd.t.0.i.p.i.P o.' C.H.G.I.Z.E & % U | ~ < U X.6 5 a.@X+Xp.p.",
"i.i.i.@Xp.d.d.i.i.p.OXg.@.#.Z.F.P.G.I.Z.~ W U Y ] ^ 6 w w +.+.p.+Xp.i.t.",
"i.t.i.t.i.p.a.i.t.i.f.c.{ } ) W W A.L.U.U.S.} ] ] 3.$.0 b 8.XXp.t.p.9.t.",
"i.r.p.i.p.0.r.t.p.i.z.^.~.A.e $ = { F.V.n.{ [ ^ ~ O.C b f.p.p.p.t.t.i.i.",
"i.i.i.OXa.t.t.i.i.p.x.W.[.!. .w W [ ^ 2 - 1 1 2 E 0 b q.i.a.p.t.i.t.a.t.",
"p.s.s.d.a.t.p.t.e.#X_.}.$X$XE.m.N.| ! , + $ : R N h.e.p.t.t.t.t.p.OXp.t.",
"s.@Xd.i.t.8..XoXz.!.!.).$X$X$X(.F.} +.3 @ 8 r D OXs.p.t.t.9.9.t.p.s.s.a.",
"@Xs.i.p.t.x H R.Q.z * w 4.W.6.4.` *... .f q.f.k.OXi.p.t.p.t.t.p.i.i.@Xs.",
"s.i.i.i.i.T.T.'.!.w O % ..4.@.;.K N K K f.0.i.p.i.p.t.i.i.t.i.r.r.i.s.a.",
"p.0.i.i.i.'.'.}.Q.l * k z z l L OXi.i.@Xp.i.i.i.t.i.p.0.0.i.p.i.9.i.p.t.",
"i.i.i.p.i.S S S Z g 9 f V B B  XOXt.@Xp.i.i.t.i.i.p.i.i.i.i.i.p.i.t.i.i.",
"i.0.p.0.0.c b c c c c b q.r.i.p.p.t.a.i.i.i.i.s.OXi.t.i.i.s.s.i.p.p.t.i.",
"p.r.t.9.r.p.i.r.i.t.t.i.0.i.i.t.p.i.t.0.r.p.p.p.s.d.s.p.s.@X@Xi.i.t.r.i.",
"i.i.t.r.p.p.i.i.i.i.i.s.p.i.i.i.i.p.t.t.r.i.p.t.p.s.@Xp.s.OXi.i.p.t.t.t.",
"i.t.s.p.i.s.p.p.a.t.p.@XOXp.i.p.s.p.t.i.p.p.i.r.r.i.s.p.s.p.0.i.i.i.p.i.",
"p.s.s.p.i.@Xs.s.OXi.t.s.@Xs.i.s.OXi.p.p.p.r.i.i.0.p.i.p.r.0.t.p.p.t.i.i.",
"s.@Xr.p.i.s.@Xd.i.p.t.i.s.a.s.+X0.t.i.@Xs.i.i.p.p.p.i.t.i.0.0.p.p.@Xa.t.",
"@Xs.p.i.t.t.s.s.r.r.r.i.p.t.i.p.i.9.i.p.s.@X+Xi.a.@Xa.i.p.t.9.t.p.p.@Xs.",
"d.i.r.p.i.p.i.i.p.i.9.i.i.i.i.i.t.i.t.i.i.d.s.a.@Xa.p.0.0.i.i.i.t.i.+Xs.",
"p.i.i.i.p.i.r.t.p.t.i.i.OXa.i.t.t.p.t.i.i.i.i.i.s.t.t.i.i.t.i.i.i.t.i.i."
};
