/* XPM */
static char *_72e567f92dc444ea89e00607826d9b8Q21L1mddZnOkyq8g[] = {
/* columns rows colors chars-per-pixel */
"36 36 150 2 ",
"   c #749043",
".  c #759244",
"X  c #779445",
"o  c #7C994A",
"O  c #789546",
"+  c #799647",
"@  c #7D994C",
"#  c #7B984B",
"$  c #779444",
"%  c #739043",
"&  c #738F43",
"*  c #749044",
"=  c #6E8A40",
"-  c #769244",
";  c #769344",
":  c #749045",
">  c #789447",
",  c #7A9748",
"<  c #819E4F",
"1  c #7B9849",
"2  c #708C42",
"3  c #718D42",
"4  c #83A051",
"5  c #7F9C4D",
"6  c #7E9A4D",
"7  c #6F8B40",
"8  c #181425",
"9  c #718E42",
"0  c #769345",
"q  c #84A152",
"w  c #819E50",
"e  c #769245",
"r  c #799646",
"t  c #789545",
"y  c #3A4466",
"u  c #728E42",
"i  c #6B873F",
"p  c #779446",
"a  c #769444",
"s  c #749144",
"d  c #728F43",
"f  c #84A151",
"g  c #6A863E",
"h  c #749143",
"j  c #799648",
"k  c #819E51",
"l  c #728E43",
"z  c #809D50",
"x  c #7A9749",
"c  c #809D4F",
"v  c #829F51",
"b  c #789547",
"n  c #759144",
"m  c #6E8B40",
"M  c #738F42",
"N  c #87A455",
"B  c #7D9A4B",
"V  c #779447",
"C  c #6C883F",
"Z  c #718D41",
"A  c #7E9B4C",
"S  c #69853D",
"D  c #708D41",
"F  c #7C9949",
"G  c #6D893F",
"H  c #799645",
"J  c #6C893F",
"K  c #738E43",
"L  c #789646",
"P  c #7D9A4E",
"I  c #779345",
"U  c #6B873E",
"Y  c #708C41",
"T  c #708D42",
"R  c #C2866A",
"E  c #6A873E",
"W  c #6D8940",
"Q  c #739042",
"!  c #6D8840",
"~  c #E8B795",
"^  c #6E8A41",
"/  c #728F42",
"(  c #3F2832",
")  c #86A355",
"_  c #789446",
"`  c #7D9B4B",
"'  c #7D9A4A",
"]  c #759344",
"[  c #7F9C4F",
"{  c #819E4E",
"}  c #F1D4BF",
"|  c #7A9747",
" . c #85A254",
".. c #7C994B",
"X. c #63C64D",
"o. c #809D4E",
"O. c #85A153",
"+. c #759143",
"@. c #7A964B",
"#. c #F7E2C7",
"$. c #769144",
"%. c #829F50",
"&. c #7E9B4D",
"*. c #728D42",
"=. c #6F8B41",
"-. c #7E9B4E",
";. c #6A863F",
":. c white",
">. c #86A354",
",. c #7F9C4E",
"<. c #85A253",
"1. c #8C9BB3",
"2. c #C0CCDC",
"3. c #7C994C",
"4. c #84A153",
"5. c #708B41",
"6. c #0B2F52",
"7. c #779545",
"8. c #759243",
"9. c #7C9A4B",
"0. c #CB1B21",
"q. c #E53B44",
"w. c #124F88",
"e. c #7E2029",
"r. c #9E2835",
"t. c #749042",
"y. c #769343",
"u. c #779546",
"i. c #68843D",
"p. c #759246",
"a. c #759247",
"s. c #7A974A",
"d. c #FFE762",
"f. c #759145",
"g. c #D4B400",
"h. c #7F9B4F",
"j. c #6C8840",
"k. c #83A052",
"l. c #6B863E",
"z. c #7C994D",
"x. c #7F9C50",
"c. c #7B984A",
"v. c #829F52",
"b. c #6D8A3F",
"n. c #759245",
"m. c #789444",
"M. c #789445",
"N. c #749146",
"B. c #749244",
"V. c #759043",
/* pixels */
"  . . X o O + @ # $ X % $ & * . = - ; % - O . : > X , < 1 . * & . . & ; ",
". 2 3 . 4 1 5 6 7 8 8 8 8 8 8 X X 9 + O 0 X . , q X w O ;   & X 3 2 e 0 ",
"& r X 3 - X t 8 8 y y y y y 8 8 8 8 8 8 9 . u i p X a u . s d t O 3 3 3 ",
"1 f ; g . & 8 8 y 8 8 8 8 8 8 8 8 8 8 8 8 8 8 8 8 8 8 h % % X j k ; ; l ",
"q z 9 - d 8 8 y 8 8 8 8 8 8 8 8 8 8 8 8 8 8 8 8 8 8 8 8 ;   % p x c 4 j ",
"v b n m s 8 y 8 8 8 8 8 8 8 8 8 8 8 8 8 8 8 8 8 8 8 8 8 8 M d r X 1 N B ",
"V $ O C - 8 y 8 8 8 8 8 8 8 8 8 8 8 8 8 8 8 8 8 8 8 8 8 8 8 % Z   ; A , ",
"M n s & ; 8 y 8 8 8 8 8 8 8 8 8 8 8 8 8 8 8 8 8 8 8 8 8 8 8 8 S   X D . ",
"n 3 l F O 8 8 8 8 8 8 8 8 8 8 8 8 8 8 8 8 8 8 8 8 8 8 8 8 8 8 G H . J K ",
"& t L q + ; 8 8 8 8 8 8 8 8 8 8 8 8 8 8 8 8 8 8 8 8 8 8 8 8 8 * 0 3 0 & ",
"X X X 3 7 c 8 8 8 8 8 8 8 8 8 8 8 8 8 8 8 8 8 8 8 8 8 8 8 8 8 P Z X u . ",
". 2 u X I O O 8 8 8 8 8 8 8 8 8 8 8 8 8 8 8 8 8 8 8 8 8 8 8 8 X ; 3 U Y ",
"0 s 2 C T 0 . n 8 R R R R R R R R R R R R R 8 8 8 8 8 8 8 8 8 X X ; E W ",
"t X Q 3   n = ! 8 ~ ~ ~ ~ ~ ~ ~ ~ ~ ~ ~ ~ R R 8 8 8 8 8 8 8 8   X % ^ / ",
"h r A t t & = m 8 ( ( ( ~ ~ ~ ( ( ( ( ( ~ ~ R R 8 8 8 8 8 8 8 3 X u 2 ; ",
"M , ) B O / _ ` 8 ( ( ( ( ~ ( ( ( ( ( ( ~ ~ ~ R 8 8 8 8 8 8 j M X ' * ] ",
"; b [ N , X { ) 8 8 8 8 8 8 8 8 8 8 8 8 8 8 8 8 8 8 } } } 8 4 ; 1 q | - ",
"& 0 X z O c  ...8 X.X.8 R R R 8 X.X.X.8 R R R R 8 8 R R } 8 o.+ O.X X & ",
"& i X l +.c @.u 8 8 8 8 #.~ ~ 8 8 8 8 8 ~ ~ ~ ~ R R R R ~ 8 O - l X u . ",
"X   9 $.X + p ; 8 R R R #.~ ~ R R R R R ~ ~ ~ ~ ~ ~ ~ ~ ~ 8 7 X h X 2 . ",
"Y O   X   ; r . 8 #.~ ~ #.#.#.~ ~ ~ ~ ~ #.#.~ ~ ~ ~ R R 8 h % , %.X Q ; ",
"Z O &.O *.=.9 * n 8 ~ ~ R R R ~ ~ ~ ~ ~ #.#.~ ~ ~ ~ R 8 % X . + 5 &.o.O ",
"+ A -.O e ;.C n . 8 ~ R :.:.:.:.:.R ~ ~ ~ ~ ~ ~ ~ R R 8 / s T s ; &.>.,.",
"..<.; - 0 =.9 - 8 1.1.1.1.R R R 2.2.2.2.2.2.2.1.1.1.1.1.8 ] u & X ; 3.4.",
"j [ 0 5.2 I   l 8 6.6.6.1.( ( ( 2.6.6.6.6.6.6.6.1.1.6.6.8 r 7.X 0 X 8.9.",
"& t I g h L n W 8 1.6.1.1.0.q.0.2.2.6.6.6.6.6.1.w.w.1.6.8 o.; - 3 X u . ",
"X a 3 $.X ; ; 0 8 1.6.6.1.e.r.e.2.6.6.6.6.6.6.1.w.w.1.6.8 ,.t.M X X t & ",
"; & 0 X ; o.' y.8 1.6.1.1.0.q.0.2.2.6.6.6.6.6.1.w.w.1.6.8 , h =.= t W K ",
"h i & X ; w <.o 8 1.6.6.1.e.r.e.2.6.6.6.6.6.6.1.w.w.1.6.8 h u.l i.K l - ",
"d D   X   p.k c 8 1.6.1.1.0.q.0.2.2.6.6.6.6.6.~ R R R 6.8 h X 0 D u * 0 ",
"n H h X * 7 a.s.8 R 6.6.1.d.d.d.2.6.6.6.6.6.6.~ R R R 8 + + 1 $ r o & . ",
"; ; f.I H l 7 / 8 R 1.1.1.g.8 g.2.2.2.2.2.2.1.1.R R R 8 B o.v 8.O h.o X ",
"u 1 <.O t j.D - u 8 8 8 8 g.g.g.8 8 8 8 8 8 8 8 8 8 8 8.o. .3.; 0 Z k.B ",
"o q O X & l.D L ; + <.+ 8 8 8 8 ( ( ( ( ( ( ( ( 8 3 3 7 z.,.t.u X X x.4.",
"c.v.0 3 n 0 * = b.r , q 8 ( ( ( ( 8 8 8 ( ( ( ( 8 g - I : n.m.; M.u 0 z ",
"0 N.d . M.B.V.s M & u 1 f.8 ( ( ( 8 t l 8 ( ( ( 8 % & p M D . X & . ; + "
};
