/* XPM */
static char *_4864557a5e5419b984c3d0fa639aed0ITwSGtxulQDTsXcl[] = {
/* columns rows colors chars-per-pixel */
"36 36 150 2 ",
"   c #181425",
".  c #3F2832",
"X  c #7E2029",
"o  c #0B2F52",
"O  c #3A4466",
"+  c #9E2835",
"@  c #CB1B21",
"#  c #E53B44",
"$  c #68843D",
"%  c #69853D",
"&  c #6A863E",
"*  c #6B863E",
"=  c #6A873E",
"-  c #6B873E",
";  c #6A863F",
":  c #6B873F",
">  c #6C883F",
",  c #6C893F",
"<  c #6D893F",
"1  c #6D8A3F",
"2  c #6C8840",
"3  c #6D8840",
"4  c #6D8940",
"5  c #6E8A40",
"6  c #6E8B40",
"7  c #6F8B40",
"8  c #6E8A41",
"9  c #6F8B41",
"0  c #708B41",
"q  c #708C41",
"w  c #708D41",
"e  c #718D41",
"r  c #708C42",
"t  c #708D42",
"y  c #718D42",
"u  c #728D42",
"i  c #718E42",
"p  c #728E42",
"a  c #728F42",
"s  c #738F42",
"d  c #728E43",
"f  c #738E43",
"g  c #728F43",
"h  c #738F43",
"j  c #739042",
"k  c #739043",
"l  c #749042",
"z  c #749043",
"x  c #759043",
"c  c #749143",
"v  c #759143",
"b  c #759243",
"n  c #769343",
"m  c #749044",
"M  c #749144",
"N  c #759144",
"B  c #749045",
"V  c #759145",
"C  c #769144",
"Z  c #749244",
"A  c #759244",
"S  c #759344",
"D  c #759245",
"F  c #769244",
"G  c #769344",
"H  c #769245",
"J  c #769345",
"K  c #779345",
"L  c #749146",
"P  c #759246",
"I  c #759247",
"U  c #769444",
"Y  c #779444",
"T  c #779445",
"R  c #779545",
"E  c #779446",
"W  c #779546",
"Q  c #779447",
"!  c #789444",
"~  c #789445",
"^  c #789545",
"/  c #799645",
"(  c #789446",
")  c #789546",
"_  c #789447",
"`  c #789547",
"'  c #789646",
"]  c #799646",
"[  c #799647",
"{  c #7A9747",
"}  c #799648",
"|  c #7A9748",
" . c #7A9749",
".. c #7A974A",
"X. c #7A964B",
"o. c #7B9849",
"O. c #7B984A",
"+. c #7B984B",
"@. c #7C9949",
"#. c #7C994A",
"$. c #7C994B",
"%. c #7D9A4A",
"&. c #7C9A4B",
"*. c #7D9A4B",
"=. c #7D9B4B",
"-. c #7C994C",
";. c #7D994C",
":. c #7C994D",
">. c #7E9B4C",
",. c #7E9A4D",
"<. c #7E9B4D",
"1. c #7D9A4E",
"2. c #7E9B4E",
"3. c #7F9B4F",
"4. c #7F9C4D",
"5. c #7F9C4E",
"6. c #7F9C4F",
"7. c #7F9C50",
"8. c #63C64D",
"9. c #D4B400",
"0. c #809D4E",
"q. c #809D4F",
"w. c #819E4E",
"e. c #819E4F",
"r. c #809D50",
"t. c #819E50",
"y. c #819E51",
"u. c #829F50",
"i. c #829F51",
"p. c #829F52",
"a. c #83A051",
"s. c #83A052",
"d. c #84A151",
"f. c #84A152",
"g. c #84A153",
"h. c #85A153",
"j. c #85A253",
"k. c #85A254",
"l. c #86A354",
"z. c #86A355",
"x. c #87A455",
"c. c #C2866A",
"v. c #FFE762",
"b. c #124F88",
"n. c #8C9BB3",
"m. c #E8B795",
"M. c #F1D4BF",
"N. c #C0CCDC",
"B. c #F7E2C7",
"V. c white",
/* pixels */
"G h G G y G G X.w.X.n ( h G Q G j z z 1 z z z n z Q ! #.=.X.G #.G G G y ",
"G G 9 h G y h G ' y.' d.X.G G G ' X.h ' '             1 =.q.#.u.G h 9 G ",
"h h 9 Q Q h G G h z G ' $ h G h             O O O O O     ' ( z y ' ' h ",
"y G G y.' Q B y G                                     O     z z $ G d.o.",
"' a.w.o.Q j z G                                         O     j G h 7.d.",
"=.x.o.! ' j h                                             O   G 9 G ( y.",
"X.=.z z h j                                               O   G $ ' ( ( ",
"z h Q h $                                                 O   G G y G s ",
"h , z ' ,                                                     G #.h r h ",
"h G h Q h                                                   z X.d.' ' h ",
"z h z h =.                                                  w.h r ( ( G ",
"1 $ h n Q                                                 ' ' z G h r G ",
"1 , n Q n                   c.c.c.c.c.c.c.c.c.c.c.c.c.  z z G h - r G G ",
"j 9 j Q z                 c.c.m.m.m.m.m.m.m.m.m.m.m.m.  3 9 G h h s G ' ",
"z h h n h               c.c.m.m.. . . . . m.m.m.. . .   9 9 h G ' #.' G ",
"Q j o.Q h '             c.m.m.m.. . . . . . m.. . . .   #.G h ' #.z.X.s ",
"z { d.#.n a.  M.M.M.                                    z.w.G X.z.r._ G ",
"z Q Q d.{ 5.  M.c.c.    c.c.c.c.  8.8.8.  c.c.c.  8.8.  #.z.w.' r.G G h ",
"n h n j z '   m.c.c.c.c.m.m.m.m.          m.m.B.        h X.5.z h G - s ",
"G 9 Q z z h   m.m.m.m.m.m.m.m.m.c.c.c.c.c.m.m.B.c.c.c.  z ( ' ' G h s ( ",
"Q j n u.{ j B   c.c.m.m.m.m.B.B.m.m.m.m.m.B.B.B.m.m.B.  G Q z z ( s ( r ",
"Q 5.=.w.' Q Q j   c.m.m.m.m.B.B.m.m.m.m.m.c.c.c.m.m.  G G h 9 h ( q.' r ",
"5.x.5.z B 9 B h   c.c.m.m.m.m.m.m.m.c.V.V.V.V.V.c.m.  G G $ $ G ( =.=.' ",
"a.#.n ' j j z   n.n.n.n.n.N.N.N.N.N.N.N.c.c.c.n.n.n.n.  G h r G G G z.o.",
"=.G ' z ' ' '   o o n.n.o o o o o o o N.. . . n.o o o   y y ( r h G =.X.",
"B h z h z ! w.  o n.b.b.n.o o o o o N.N.@ # @ n.n.o n.  3 G Q G $ G ' h ",
"h Q Q ' s z w.  o n.b.b.n.o o o o o o N.X + X n.o o n.  G G G G z h n Q ",
"h , ! , r z '   o n.b.b.n.o o o o o N.N.@ # @ n.n.o n.  G #.w.G Q G j Q ",
"z h h $ h Q z   o n.b.b.n.o o o o o o N.X + X n.o o n.  #.d.y.G ( h $ j ",
"( s r h G G z   o c.c.c.m.o o o o o N.N.@ # @ n.n.o n.  y.y.G h ( y h h ",
"z s o.' ' #.' '   c.c.c.m.o o o o o o N.v.v.v.n.o o c.  X.G r h ( G ' G ",
"' #.q.' z y.w.=.  c.c.c.n.n.N.N.N.N.N.N.9.  9.n.n.n.c.  h r y ' _ h G G ",
"#.p.h G z #.z.5.z                       9.9.9.        r z h $ ' ' d.o.h ",
"z.=.G ( h s w.:., h h   . . . . . . . .         ' z.' G Q h - z G ' d.#.",
"y.G y ( G ( G h ' z $   . . . .       . . . .   d.X.' , 9 h ( z y G y.o.",
"X.G G h G G 9 h ( h G   . . .   h Q   . . .   G o.s s s G z z ( G y I G "
};
