/* XPM */
static char *_7a0ce6557af40f6eb1f59443ba1a482G4cxRTuVaaqerVZW[] = {
/* columns rows colors chars-per-pixel */
"36 36 222 2 ",
"   c #010002",
".  c #06010A",
"X  c #09010E",
"o  c #08080C",
"O  c #0B0213",
"+  c #0E041A",
"@  c #0A0415",
"#  c #100616",
"$  c #12051C",
"%  c #11091D",
"&  c #140622",
"*  c #180525",
"=  c #170925",
"-  c #1B072A",
";  c #1B0A2B",
":  c #190A26",
">  c #1E0C31",
",  c #240B2D",
"<  c #230C34",
"1  c #250D3B",
"2  c #2B0F3E",
"3  c #221037",
"4  c #2C0E44",
"5  c #2E0E48",
"6  c #320F49",
"7  c #2B1143",
"8  c #2D1249",
"9  c #32124B",
"0  c #3A114C",
"q  c #361147",
"w  c #361454",
"e  c #3B1456",
"r  c #3C155C",
"t  c #38185A",
"y  c #3B2659",
"u  c #3D1561",
"i  c #3E1867",
"p  c #3B1D76",
"a  c #3C2462",
"s  c #3D2767",
"d  c #3E2670",
"f  c #451659",
"g  c #402F5E",
"h  c #453957",
"j  c #421663",
"k  c #461964",
"l  c #44176B",
"z  c #44196A",
"x  c #4B1B6D",
"c  c #491869",
"v  c #451972",
"b  c #4C1A75",
"n  c #441B7A",
"m  c #4B1A7A",
"M  c #531A74",
"N  c #521B7B",
"B  c #571975",
"V  c #50186D",
"C  c #412E67",
"Z  c #47366A",
"A  c #412B73",
"S  c #41247B",
"D  c #4C2976",
"F  c #4B377D",
"G  c #4D4B4D",
"H  c #4B454B",
"J  c #53544C",
"K  c #575B4D",
"L  c #4D4557",
"P  c #534D59",
"I  c #52544C",
"U  c #5D6649",
"Y  c #5F7043",
"T  c #5D6155",
"R  c #626E4C",
"E  c #637444",
"W  c #65744B",
"Q  c #6A7B4D",
"!  c #677948",
"~  c #646E53",
"^  c #687652",
"/  c #4D4366",
"(  c #554D68",
")  c #5D5B64",
"_  c #595268",
"`  c #645674",
"'  c #706C73",
"]  c #6B863E",
"[  c #6D8545",
"{  c #6E8941",
"}  c #678040",
"|  c #728D43",
" . c #71864B",
".. c #748B4B",
"X. c #769244",
"o. c #789546",
"O. c #799649",
"+. c #7C994B",
"@. c #769048",
"#. c #778D50",
"$. c #758656",
"%. c #7F9C50",
"&. c #819E4F",
"*. c #819E51",
"=. c #84A152",
"-. c #3D1D85",
";. c #481D8A",
":. c #531D83",
">. c #5C1D83",
",. c #541C8A",
"<. c #5A1F8B",
"1. c #461F9A",
"2. c #5C1E93",
"3. c #541E99",
"4. c #5A1E9B",
"5. c #641D89",
"6. c #641F94",
"7. c #442583",
"8. c #472789",
"9. c #5B218C",
"0. c #592486",
"q. c #4D2296",
"w. c #5D2095",
"e. c #5C219B",
"r. c #542896",
"t. c #523492",
"y. c #62218E",
"u. c #622086",
"i. c #6B2294",
"p. c #64229C",
"a. c #6A229E",
"s. c #632192",
"d. c #732597",
"f. c #6B3899",
"g. c #5C1EA7",
"h. c #5C1EB0",
"j. c #4B1FA3",
"k. c #631FA8",
"l. c #4E24A3",
"z. c #4821A8",
"x. c #5322A1",
"c. c #5C21A4",
"v. c #5B22AB",
"b. c #5222AC",
"n. c #4C23B1",
"m. c #4D28BA",
"M. c #5D23B3",
"N. c #5722B7",
"B. c #5B37AC",
"V. c #6221A4",
"C. c #6C24A3",
"Z. c #6524AB",
"A. c #7323A2",
"S. c #7324AC",
"D. c #7D26AA",
"F. c #6322B3",
"G. c #6C24B3",
"H. c #6423BB",
"J. c #6B24BB",
"K. c #7524B4",
"L. c #7B26B3",
"P. c #7426BA",
"I. c #7B26BA",
"U. c #7A29BB",
"Y. c #673BB9",
"T. c #703CB0",
"R. c #584885",
"E. c #73468D",
"W. c #69548A",
"Q. c #73598A",
"!. c #725296",
"~. c #6F46A1",
"^. c #5622CB",
"/. c #5A23DF",
"(. c #6425C1",
"). c #6C25C5",
"_. c #6425CA",
"`. c #6C25CC",
"'. c #6D29CD",
"]. c #7225C3",
"[. c #7426CD",
"{. c #7C26CC",
"}. c #7E28C4",
"|. c #6C26D4",
" X c #6C26DB",
".X c #6926DD",
"XX c #7226D2",
"oX c #7D29D5",
"OX c #7227DA",
"+X c #7A28DB",
"@X c #7927D7",
"#X c #6725E1",
"$X c #7427E4",
"%X c #7B29E4",
"&X c #7928EA",
"*X c #7728F1",
"=X c #8326AB",
"-X c #8227BA",
";X c #992BBC",
":X c #8729C9",
">X c #8A29CD",
",X c #8427C8",
"<X c #972CCA",
"1X c #8227D4",
"2X c #8C29D6",
"3X c #8529DA",
"4X c #8C2ADC",
"5X c #8128D0",
"6X c #952BD5",
"7X c #A52ED6",
"8X c #A730D0",
"9X c #8C2BE3",
"0X c #8C2BEA",
"qX c #822AE8",
"wX c #942CE3",
"eX c #9A2DE7",
"rX c #852AF2",
"tX c #8A2BF3",
"yX c #8C2BFA",
"uX c #942CF6",
"iX c #A730F0",
"pX c #A32FE4",
/* pixels */
"X.| X.X.X.X.X.o.&.O.o.+.....#.#. .^ ' ) ) U W ..| o.o.+.+.o.o.+.X.X.X.X.",
"o.X.{ | X.X.X.X.o.&.$.' W.` Q.!.E.E.f.d.i.Z.t.h J Q | ] +.&.+.=.X.X.] X.",
"| | | o.o.{ X.| ^ _ Z S x.M.M.(.'.%X9XeXi.e m G.t.Z _ ) ! X.X.X.{ o.o.X.",
"| X.X.&.O.@. .P C 1.`.[.V.m u 7 ; < w N <X7Xi.e k.(.l.m.F U | X.] X.=.O.",
"o.=.*.O.o.Q h d ].:Xx - X . . : 7 2 % # o 2 i.8Xk ,.tX0X/.D U | X.| +.=.",
"+.=.+.X...G 8.3Xd.% . $ 2 m e.).XX+XXXJ.:.6 # 2 A.e 2.eX2X^.C E ] X.O.=.",
"+.+.o.| K 8.4Xk O : z M.+X%X`.v.n n c.F.%XrX[.x $ e 4 ].1X{.n.h E o.X.X.",
"X.| | K C 1Xf @ w J.%XXXw.1 @ X O X O # ; c J.yXa.+ $ e rXA.XX-.G { X.X.",
"| ] J a XXB + :.qX+X:.- . > z e.F.h.x.e.b < # :.uXe.$ $ F.[.S.h.a U { X.",
"| U a F.S.+ <.rXG.e $ < w.9XrX+XF.F.).`.|.[.m O l uXz . u &X6..X8.P @.@.",
"{ P 7.2X, :.yX,.x 6 2.9XP.b 8 ; O O ; 5 :.).|.:.X <.I.@ < $X<.,X^.S ^ o.",
"W y ).V v tXN M k I.uXm % X . X O X     X 7 P.+X7 % U.1 # `.w.5..Xz./ | ",
"K d ,Xe %Xe.B >.k.0Xw O X = r x v w ; X   . 4 qXV.. k.b X H.3.>.qX^.q.R ",
"L b.p.e.@Xe =Xj yXc O O w S.y.u j p.:.& .   O :.qX: x 0.o J.e.w 2XuXn.T ",
"h '.i.$Xl 6.M ].P.& X r >Xu &   X = S.z +   . 4 oX< 4 z X (.e.> XX6XY.Q ",
"Z oXS.'.4 I.M 0Xw X > 9X:.+ .   @ ; P.P.&   X > -X; 7 j % +Xr.7 |.C.!.[ ",
"t.1X`.,.u K.k.].: . l %X4 X   X 4 I.3Xv + . X 1 C.+ c r 7 &Xi e  X<.Q.@.",
"B.2X#Xw 4.e.H.g.O X V.).* .   O 6.2.: O . * > > v . x ; m OXw m $XD ' { ",
"Y.1X.X9 h.g.|.v . O F.F.$ .   O s.l     % 0.9 = 3 O 7 ; ].'.< I.uXD W.[ ",
"Y.J._.< h.V.|.i   O :.{.- .   O 1 9.N N K.C.+ * + + O N $X,.< 7X4Xx ~. .",
"Y.1.g.9 h.k.[.i . . z $Xt O     @ - j <.b $ . O     1 oX[.& B <X{.x T.W ",
"B.;.v.b h.4.F.4.X   w +XG.> $ .   X O O         . < P.qXr : 8XD.P.y.f.W ",
"R.-.v.6.:.(.V.Z.$   O 9.rX<.; & X .         . O 2 G.+X:.X L.D.[.m A.R...",
"' 7.v.6.n OX<.].; .   ; C.rXZ.j < & + O + $ < z ].+XC.X k 6X0.4X9 }.R.@.",
"$./ 8.{.b `.c.}.t @     & :.+X XF.w.n v v ,.H.&X@X:.# z iXu.9X:.M  X( @.",
"X.U Z :X2.c.[.K.e.& .     $ e p.`.|._._.|.OXJ.:.: # 9.pX0.:X-X< oXn.H { ",
"X.| I K.,X4..XI.3X9 +       X $ 9 9.<.:.w 1 # X c 3X:Xk :X:X& >.*Xy K X.",
"| { W t.4XK.F.@X{.J.; @     .     . X X + 7 k A.-Xv x pXL.$ e yX8.G [ X.",
"X.| { H |.rXk.$X:X0X<.* O   . # O X   O ; b N 6 t d.7XM   0 wXl.G [ ] X.",
"X.| | } Z ^.).>X*X0X9X>.: O     $ 8 t 8 8 l :.S.-X>.% X B wXq.L [ X.X.| ",
"X.| O.o.} 8.-.H.{.#XOX+XZ.r $ . . X = w r l l 1 X X 0 -X%Xz.Z ^ o.X.o.X.",
"o.+.&.o.X.#.( s H.5X+Xn.1.'.2.0 & * < * X X & 1 c D.8XuX^.8.T O.X.X.X.X.",
"+.=.| X.o.+.=.~ C q.+XtX,.p N.+XJ.w.I.d.=X=X;X<X6X1XH.1.a G { o.o.=.O.X.",
"=.&.X.X.] X.&.O.! P d b.|.N.n p ;.M.^.(.(.`.XXH.j.-.w y K { ] | X.o.=.O.",
"&.X.X.X.X.o.X.X.X.X.E G g 7.l.N.j.n p A A A d a y a h W ] X.X.X.{ X.=.O.",
"o.X.X.| o.X.] X.X.| | X.#.R K G ( ) T ^ W ^ ^ R ~ ! [ | X.X.@.o.X.| @.o."
};
