/* XPM */
static char *f54c1b231bf541e7d8557ee7418744e23zMBynCA1xRhcvWb[] = {
/* columns rows colors chars-per-pixel */
"36 36 207 2 ",
"   c #5A7B01",
".  c #699200",
"X  c #729F00",
"o  c #7BA800",
"O  c #678522",
"+  c #678622",
"@  c #678525",
"#  c #688622",
"$  c #688723",
"%  c #698723",
"&  c #698823",
"*  c #6B8A26",
"=  c #6C8A27",
"-  c #65832C",
";  c #66842C",
":  c #67852C",
">  c #67852D",
",  c #68852D",
"<  c #69872E",
"1  c #6B892E",
"2  c #6B892F",
"3  c #6C892E",
"4  c #6C8A2E",
"5  c #6D8B30",
"6  c #6E8B30",
"7  c #6E8C30",
"8  c #6E8D30",
"9  c #6E8D31",
"0  c #6E8E30",
"q  c #6F8E30",
"w  c #6F8E31",
"e  c #68843D",
"r  c #69853D",
"t  c #69853E",
"y  c #6A853E",
"u  c #69863E",
"i  c #6A863E",
"p  c #6B863E",
"a  c #6A873E",
"s  c #6B873E",
"d  c #6A863F",
"f  c #6B873F",
"g  c #6C883E",
"h  c #6C883F",
"j  c #6C893F",
"k  c #6D893F",
"l  c #6D8A3F",
"z  c #6E8A3F",
"x  c #708E32",
"c  c #719033",
"v  c #719034",
"b  c #729034",
"n  c #729035",
"m  c #739135",
"M  c #739235",
"N  c #739136",
"B  c #759336",
"V  c #759438",
"C  c #759439",
"Z  c #78973A",
"A  c #6C8840",
"S  c #6D8940",
"D  c #6D8A40",
"F  c #6E8A40",
"G  c #6E8B40",
"H  c #6F8B40",
"J  c #6E8A41",
"K  c #6F8B41",
"L  c #6F8C41",
"P  c #708B41",
"I  c #708C41",
"U  c #708D41",
"Y  c #718D41",
"T  c #718E41",
"R  c #728F41",
"E  c #708C42",
"W  c #708D42",
"Q  c #718D42",
"!  c #728D42",
"~  c #718E42",
"^  c #728E42",
"/  c #728F42",
"(  c #738F42",
")  c #728E43",
"_  c #738E43",
"`  c #728F43",
"'  c #738F43",
"]  c #739042",
"[  c #739043",
"{  c #749042",
"}  c #749043",
"|  c #759043",
" . c #749143",
".. c #759143",
"X. c #749242",
"o. c #759243",
"O. c #759343",
"+. c #749044",
"@. c #749144",
"#. c #759144",
"$. c #749045",
"%. c #759145",
"&. c #769144",
"*. c #749244",
"=. c #759244",
"-. c #759344",
";. c #759245",
":. c #769244",
">. c #769344",
",. c #769245",
"<. c #769345",
"1. c #779345",
"2. c #749146",
"3. c #759246",
"4. c #759247",
"5. c #769246",
"6. c #769346",
"7. c #779346",
"8. c #779347",
"9. c #769444",
"0. c #779444",
"q. c #779445",
"w. c #779545",
"e. c #779446",
"r. c #779546",
"t. c #779447",
"y. c #789444",
"u. c #789445",
"i. c #789545",
"p. c #789645",
"a. c #799645",
"s. c #789546",
"d. c #789447",
"f. c #789547",
"g. c #789646",
"h. c #799646",
"j. c #799647",
"k. c #7A9747",
"l. c #799648",
"z. c #7A9748",
"x. c #7A9749",
"c. c #7A974A",
"v. c #7A964B",
"b. c #7B9849",
"n. c #7B984A",
"m. c #7B984B",
"M. c #7C9949",
"N. c #7D9A49",
"B. c #7C994A",
"V. c #7C994B",
"C. c #7D9A4A",
"Z. c #7C9A4B",
"A. c #7D9A4B",
"S. c #7E9B4B",
"D. c #7C994C",
"F. c #7D994C",
"G. c #7C994D",
"H. c #7D9A4C",
"J. c #7D9A4D",
"K. c #7E9B4C",
"L. c #7E9A4D",
"P. c #7E9B4D",
"I. c #7D9A4E",
"U. c #7E9B4E",
"Y. c #7F9B4F",
"T. c #7F9C4D",
"R. c #7F9D4D",
"E. c #7F9C4E",
"W. c #7F9D4E",
"Q. c #7F9C4F",
"!. c #7F9C50",
"~. c #8DC300",
"^. c #A1D700",
"/. c #FFC124",
"(. c #809D4D",
"). c #809D4E",
"_. c #809C4F",
"`. c #809D4F",
"'. c #819E4E",
"]. c #819E4F",
"[. c #809D50",
"{. c #819E50",
"}. c #819E51",
"|. c #829F50",
" X c #829F51",
".X c #829F52",
"XX c #83A050",
"oX c #83A051",
"OX c #83A052",
"+X c #84A151",
"@X c #84A152",
"#X c #84A153",
"$X c #85A153",
"%X c #85A253",
"&X c #84A154",
"*X c #85A254",
"=X c #85A255",
"-X c #86A354",
";X c #86A355",
":X c #87A455",
">X c #FFD15E",
",X c #FFDC80",
"<X c #FFFF80",
"1X c #EA9DE1",
"2X c #EFB2E8",
"3X c #F2C4EC",
"4X c #FFD8FF",
/* pixels */
">.' >.>.Q >.>.v.'.k.t.g.} } t.} } 9.} z >.Q >.>.' t.y.N.N.v.g.N.t.} } } ",
">.>.K ' >.Q ' >.t.'.t.#Xb.} t.9.g.k.' g.>.' >.' e t.g.k F.F.b.oX} ' ' } ",
"' ' K t.t.' >.>.] 9.t.t.h ' } L k.#Xt.9.' ' g.} ' 9.t.' } g.t.} ' >.g.' ",
"Q >.>.}.g.t.$.Q ] h 9.] e ] t.' b.oXg.z '.b.' t.} ' 9.9.g.} ' >.s } #XN.",
"v.oX'.k.t.] } >.} ] t./.>X] >.$.g.g.' } k.t.v.'.oX>.z t.' k ' ' >.E [.#X",
"N.:Xb.g.g.] ' N.oX'.} >X,X/.T.$.g.>.} ' } } >.'.oX} '.v.s e ' } K >.8.}.",
"g.T.} } ' ] ~.9 oX#X/./.,X>X,X>X} u.} 3X2X+ } g.N.F.N.>.' } >.>.K >.g.8.",
"] ' t.' e ~./.o 9 >X,X>X<X/.,X>X>.>.~.1X1X. 9 g.t.F.' ' } } g.>.Q >.' ' ",
"' h >.g.k > o   o >X,X/.,X,X. . 4 D . o .   5 2X1Xt.t.9.>.>.t.t.N.Q ' >.",
"' >.' >.$.t.g.>.. ^.~.X >X,X~.~.. - t.~ $.o 1X2X1X1Xo } T.T.} g.#Xg.>.Q ",
"} ' >.' F.:XF.>.9     .   o ~.^.o   ~./.  ~.^.1X1X~.^.o } '.'.' E u.u.>.",
"L e ' } t.T.*XF.t.*X6 $     . 2X2X1X  . v o ~.~.o o ~.. 9.g.t.>.g.Q E >.",
"K e 9.t.9.g.T.. 1X~.  ' ] t.1X3X1X1X1Xo !.V . .   * < o 2X1X>.o o E >.>.",
"] K ] 9.} } >.N..   ,X>X4 o 1X1X2X3X1X~.C ,X,XT.' Q o 1X2X1X1X^.~.4 >.u.",
">.L ' t.' } ' k ' ~././.. . ~.o 1X1X~.o l ,X>X,X>Xv.. ~.1X1X~.~.o M g.>.",
">.$.b.t.' g.g.k e . o .   4 M =   . . ,X,X/.<X,X>Xv.T.n *   . . M *Xv.' ",
"9.k.oXb.*.!.1X1XA ` v.v . ~.1X. 0 ] o >X/.>X,X/.L t.9.F.:X'.t.k.*X'.g.>.",
"] t.t.oXz.2X1X2X1Xt.!.I.9 o .   t.' ~.^.o ,X,X^.o . ~./.  *X'.t.}.>.>.Q ",
"} ] t.] o 1X2X3X1Xo v.!.>X/.t.>.L 3X2X~.~.o o ~.. 4 . . 4 b.T.} ' u.s ' ",
">.L t.o ^.~.1X1X^.~.I./.>X>XT.>.~.1X1X. .   & 4 L t.9 q >.t.k.t.} ' ' u.",
"t.] 9.. ~.o o ~.~.>X,X>X,X/./.>.. o .   B b.] t.>.3X2X~.>.g.t.] g.} g.E ",
"t.T.T.T.v +   . . >X,X/.<X>X,X>X. 4 t.] }.>X/.9 ~.1X1X^.~.L K ' g.F.g.E ",
"T.:XT.>.*.` *.` - . . ,X,X/.,X>X~.  9 o /.>X/./.o o .     e e >.g.T.N.v.",
"&XN.} t.,X>X*.` o ^.~.,X>X. X ~..   o ^.~././.^.~.K >.>.>.' K >.} t.#XN.",
"b.t.t.~././.. >.. ~.X .     . .   9 . ~.o o ~.~.o   /.~.  >.>.K E >.'.v.",
"] ' g.. o .   '.9       $ 9 x #X}.o /.. .   . . @ 6 .   > 3X2X>.e >.u.Q ",
"] t.9.9.4 4 T.F.. ~.1X. >.g.>.3X3X' .   >.' ' 1X1X>.g.6 ~.1X1X. } ' t.>.",
"' K t.k K ] v.v.Q   . 6 K 3X3X2X3X>.N.>.>.o 2X1X2X1Xo . . o .   t.>.' >.",
"} ' ' e ' t.] ] >.} ] >.] 2X3X4X1X3X3XK ' ~.1X2X3X1X^.o v.C C >.>.' A >.",
">.' ' ' >.>.} } } } >.N.g.~.1X3X2X1X2Xo ' o ~.1X1Xo ~.. '.}.>.>.g.Q E Q ",
"} ] N.g.t.b.g.v.v.' >.*XT.o ~.3X3Xo ~.. g.4 . .   # M v.v.4.K Q u.>.g.>.",
"t.b.T.t.} oX'.N.}.>.L F.:Xn . .   + 4 v.g.' } } < . ~.1X  E Q g.u.' >.>.",
"N.oX' >.>.F.*X}.>.>.Q >.F.g.F.'.z ' 9.oXN.t.t.t.g.x .   } ' h g.g.#Xb.' ",
"*X!.t.>.' ' F.F.K ' Q >.v.' ] t.} e >.t.F.*XT.>.g.#Xg.9.t.' e } u.g.#Xb.",
"!.>.' >.>.>.>.>.>.>.A >.t.>.t.>.' } ' 9.t.T.F.v.#Xg.g.k K Q >.} Q t.}.N.",
"g.>.>.' >.>.K ' >.Q Q >.(.b.} ' ' 9.' } ] t.t.>.N.' ' } >.' >.u.>.Q ' >."
};
